<svg width="24" height="30" viewBox="0 0 24 30" fill="none" xmlns="http://www.w3.org/2000/svg">
<path d="M12.6002 1.94602L12.1397 2.53803L12.1417 2.53955L12.6002 1.94602ZM10.9735 1.94602L11.4286 2.54225L11.434 2.53803L10.9735 1.94602ZM1.00016 17.5327H1.75017L1.75015 17.5286L1.00016 17.5327ZM22.6002 17.546L21.8502 17.5446V17.546H22.6002ZM12.5369 1.66602C12.5369 1.2518 12.2011 0.916016 11.7869 0.916016C11.3727 0.916016 11.0369 1.2518 11.0369 1.66602H12.5369ZM11.0369 28.3327C11.0369 28.7469 11.3727 29.0827 11.7869 29.0827C12.2011 29.0827 12.5369 28.7469 12.5369 28.3327H11.0369ZM11.4592 23.6046C11.0866 23.7856 10.9313 24.2343 11.1122 24.6069C11.2932 24.9795 11.742 25.1348 12.1145 24.9539L11.4592 23.6046ZM22.3812 19.9672C22.7538 19.7862 22.9092 19.3375 22.7282 18.9649C22.5472 18.5923 22.0985 18.437 21.7259 18.6179L22.3812 19.9672ZM11.4592 16.9379C11.0866 17.1189 10.9313 17.5676 11.1122 17.9402C11.2932 18.3128 11.742 18.4681 12.1146 18.2871L11.4592 16.9379ZM21.9412 13.5138C22.3138 13.3328 22.4691 12.8841 22.2881 12.5115C22.1072 12.1389 21.6584 11.9836 21.2858 12.1646L21.9412 13.5138ZM11.4584 10.2717C11.0861 10.4531 10.9312 10.902 11.1126 11.2744C11.294 11.6468 11.7429 11.8016 12.1153 11.6202L11.4584 10.2717ZM18.822 8.35357C19.1944 8.17219 19.3492 7.72327 19.1678 7.35088C18.9865 6.97849 18.5375 6.82365 18.1652 7.00503L18.822 8.35357ZM13.0606 1.354C12.3098 0.77002 11.2639 0.77002 10.5131 1.354L11.434 2.53803C11.6432 2.37534 11.9306 2.37534 12.1397 2.53803L13.0606 1.354ZM10.5185 1.3498C9.22811 2.3346 6.67114 4.43735 4.4354 7.24183C2.20932 10.0342 0.22881 13.6135 0.250171 17.5368L1.75015 17.5286C1.73151 14.1052 3.47103 10.8578 5.6083 8.17687C7.73593 5.50802 10.1856 3.49076 11.4286 2.54223L10.5185 1.3498ZM0.25016 17.5327C0.25016 23.893 5.4254 29.0827 11.8002 29.0827V27.5827C6.25502 27.5827 1.75016 23.0657 1.75016 17.5327H0.25016ZM11.8002 29.0827C18.1738 29.0827 23.3502 23.9075 23.3502 17.546H21.8502C21.8502 23.0779 17.3466 27.5827 11.8002 27.5827V29.0827ZM23.3502 17.5474C23.3573 13.677 21.3655 10.0983 19.1374 7.29441C16.8982 4.4767 14.343 2.34458 13.0587 1.35248L12.1417 2.53955C13.3774 3.49412 15.8288 5.542 17.963 8.22763C20.1082 10.9271 21.8564 14.175 21.8502 17.5446L23.3502 17.5474ZM11.0369 1.66602V28.3327H12.5369V1.66602H11.0369ZM12.1145 24.9539L22.3812 19.9672L21.7259 18.6179L11.4592 23.6046L12.1145 24.9539ZM12.1146 18.2871L21.9412 13.5138L21.2858 12.1646L11.4592 16.9379L12.1146 18.2871ZM12.1153 11.6202L18.822 8.35357L18.1652 7.00503L11.4584 10.2717L12.1153 11.6202Z" fill="url(#paint0_linear_137_245)"/>
<defs>
<linearGradient id="paint0_linear_137_245" x1="1" y1="-16.6988" x2="25.495" y2="-15.2338" gradientUnits="userSpaceOnUse">
<stop stop-color="#E541D3"/>
<stop offset="1" stop-color="#02F1F6"/>
</linearGradient>
</defs>
</svg>
