<svg width="106" height="106" viewBox="0 0 106 106" fill="none" xmlns="http://www.w3.org/2000/svg">
<path d="M17.6667 52.9845H0V70.6563H17.6667V52.9845Z" fill="url(#paint0_linear_137_398)"/>
<path d="M35.3333 35.3126H17.6667V52.9845H35.3333V35.3126Z" fill="url(#paint1_linear_137_398)"/>
<path d="M35.3333 70.6563H17.6667V88.3282H35.3333V70.6563Z" fill="url(#paint2_linear_137_398)"/>
<path d="M17.6667 88.3282H0V106H17.6667V88.3282Z" fill="url(#paint3_linear_137_398)"/>
<path d="M70.6667 70.6563H53V88.3282H70.6667V70.6563Z" fill="url(#paint4_linear_137_398)"/>
<path d="M53 88.3282H35.3333V106H53V88.3282Z" fill="url(#paint5_linear_137_398)"/>
<path d="M88.3333 53.0155H106V35.3437H88.3333V53.0155Z" fill="url(#paint6_linear_137_398)"/>
<path d="M70.6667 70.6874H88.3333V53.0155H70.6667V70.6874Z" fill="url(#paint7_linear_137_398)"/>
<path d="M70.6667 35.3437H88.3333V17.6718H70.6667V35.3437Z" fill="url(#paint8_linear_137_398)"/>
<path d="M88.3333 17.6718H106V0H88.3333V17.6718Z" fill="url(#paint9_linear_137_398)"/>
<path d="M35.3333 35.3437H53V17.6718H35.3333V35.3437Z" fill="url(#paint10_linear_137_398)"/>
<path d="M53 17.6718H70.6667V0H53V17.6718Z" fill="url(#paint11_linear_137_398)"/>
<defs>
<linearGradient id="paint0_linear_137_398" x1="1.98707e-06" y1="-73" x2="119.982" y2="-64.141" gradientUnits="userSpaceOnUse">
<stop stop-color="#E541D3"/>
<stop offset="1" stop-color="#02F1F6"/>
</linearGradient>
<linearGradient id="paint1_linear_137_398" x1="1.98707e-06" y1="-73" x2="119.982" y2="-64.141" gradientUnits="userSpaceOnUse">
<stop stop-color="#E541D3"/>
<stop offset="1" stop-color="#02F1F6"/>
</linearGradient>
<linearGradient id="paint2_linear_137_398" x1="1.98707e-06" y1="-73" x2="119.982" y2="-64.141" gradientUnits="userSpaceOnUse">
<stop stop-color="#E541D3"/>
<stop offset="1" stop-color="#02F1F6"/>
</linearGradient>
<linearGradient id="paint3_linear_137_398" x1="1.98707e-06" y1="-73" x2="119.982" y2="-64.141" gradientUnits="userSpaceOnUse">
<stop stop-color="#E541D3"/>
<stop offset="1" stop-color="#02F1F6"/>
</linearGradient>
<linearGradient id="paint4_linear_137_398" x1="1.98707e-06" y1="-73" x2="119.982" y2="-64.141" gradientUnits="userSpaceOnUse">
<stop stop-color="#E541D3"/>
<stop offset="1" stop-color="#02F1F6"/>
</linearGradient>
<linearGradient id="paint5_linear_137_398" x1="1.98707e-06" y1="-73" x2="119.982" y2="-64.141" gradientUnits="userSpaceOnUse">
<stop stop-color="#E541D3"/>
<stop offset="1" stop-color="#02F1F6"/>
</linearGradient>
<linearGradient id="paint6_linear_137_398" x1="1.98707e-06" y1="-73" x2="119.982" y2="-64.141" gradientUnits="userSpaceOnUse">
<stop stop-color="#E541D3"/>
<stop offset="1" stop-color="#02F1F6"/>
</linearGradient>
<linearGradient id="paint7_linear_137_398" x1="1.98707e-06" y1="-73" x2="119.982" y2="-64.141" gradientUnits="userSpaceOnUse">
<stop stop-color="#E541D3"/>
<stop offset="1" stop-color="#02F1F6"/>
</linearGradient>
<linearGradient id="paint8_linear_137_398" x1="1.98707e-06" y1="-73" x2="119.982" y2="-64.141" gradientUnits="userSpaceOnUse">
<stop stop-color="#E541D3"/>
<stop offset="1" stop-color="#02F1F6"/>
</linearGradient>
<linearGradient id="paint9_linear_137_398" x1="1.98707e-06" y1="-73" x2="119.982" y2="-64.141" gradientUnits="userSpaceOnUse">
<stop stop-color="#E541D3"/>
<stop offset="1" stop-color="#02F1F6"/>
</linearGradient>
<linearGradient id="paint10_linear_137_398" x1="1.98707e-06" y1="-73" x2="119.982" y2="-64.141" gradientUnits="userSpaceOnUse">
<stop stop-color="#E541D3"/>
<stop offset="1" stop-color="#02F1F6"/>
</linearGradient>
<linearGradient id="paint11_linear_137_398" x1="1.98707e-06" y1="-73" x2="119.982" y2="-64.141" gradientUnits="userSpaceOnUse">
<stop stop-color="#E541D3"/>
<stop offset="1" stop-color="#02F1F6"/>
</linearGradient>
</defs>
</svg>
