<svg width="156" height="260" viewBox="0 0 156 260" fill="none" xmlns="http://www.w3.org/2000/svg">
<path d="M52 130H0V182H52V130Z" fill="url(#paint0_linear_137_169)"/>
<path d="M104 104H52V156H104V104Z" fill="url(#paint1_linear_137_169)"/>
<path d="M156 78H104V130H156V78Z" fill="url(#paint2_linear_137_169)"/>
<path d="M52 52H0V104H52V52Z" fill="url(#paint3_linear_137_169)"/>
<path d="M104 26H52V78H104V26Z" fill="url(#paint4_linear_137_169)"/>
<path d="M156 0H104V52H156V0Z" fill="url(#paint5_linear_137_169)"/>
<path d="M52 208H0V260H52V208Z" fill="url(#paint6_linear_137_169)"/>
<path d="M104 182H52V234H104V182Z" fill="url(#paint7_linear_137_169)"/>
<path d="M156 156H104V208H156V156Z" fill="url(#paint8_linear_137_169)"/>
<defs>
<linearGradient id="paint0_linear_137_169" x1="2.92437e-06" y1="-179.057" x2="177.192" y2="-171.207" gradientUnits="userSpaceOnUse">
<stop stop-color="#E541D3"/>
<stop offset="1" stop-color="#02F1F6"/>
</linearGradient>
<linearGradient id="paint1_linear_137_169" x1="2.92437e-06" y1="-179.057" x2="177.192" y2="-171.207" gradientUnits="userSpaceOnUse">
<stop stop-color="#E541D3"/>
<stop offset="1" stop-color="#02F1F6"/>
</linearGradient>
<linearGradient id="paint2_linear_137_169" x1="2.92437e-06" y1="-179.057" x2="177.192" y2="-171.207" gradientUnits="userSpaceOnUse">
<stop stop-color="#E541D3"/>
<stop offset="1" stop-color="#02F1F6"/>
</linearGradient>
<linearGradient id="paint3_linear_137_169" x1="2.92437e-06" y1="-179.057" x2="177.192" y2="-171.207" gradientUnits="userSpaceOnUse">
<stop stop-color="#E541D3"/>
<stop offset="1" stop-color="#02F1F6"/>
</linearGradient>
<linearGradient id="paint4_linear_137_169" x1="2.92437e-06" y1="-179.057" x2="177.192" y2="-171.207" gradientUnits="userSpaceOnUse">
<stop stop-color="#E541D3"/>
<stop offset="1" stop-color="#02F1F6"/>
</linearGradient>
<linearGradient id="paint5_linear_137_169" x1="2.92437e-06" y1="-179.057" x2="177.192" y2="-171.207" gradientUnits="userSpaceOnUse">
<stop stop-color="#E541D3"/>
<stop offset="1" stop-color="#02F1F6"/>
</linearGradient>
<linearGradient id="paint6_linear_137_169" x1="2.92437e-06" y1="-179.057" x2="177.192" y2="-171.207" gradientUnits="userSpaceOnUse">
<stop stop-color="#E541D3"/>
<stop offset="1" stop-color="#02F1F6"/>
</linearGradient>
<linearGradient id="paint7_linear_137_169" x1="2.92437e-06" y1="-179.057" x2="177.192" y2="-171.207" gradientUnits="userSpaceOnUse">
<stop stop-color="#E541D3"/>
<stop offset="1" stop-color="#02F1F6"/>
</linearGradient>
<linearGradient id="paint8_linear_137_169" x1="2.92437e-06" y1="-179.057" x2="177.192" y2="-171.207" gradientUnits="userSpaceOnUse">
<stop stop-color="#E541D3"/>
<stop offset="1" stop-color="#02F1F6"/>
</linearGradient>
</defs>
</svg>
