<svg width="17" height="12" viewBox="0 0 17 12" fill="none" xmlns="http://www.w3.org/2000/svg">
<path fill-rule="evenodd" clip-rule="evenodd" d="M16.6442 0.351359C16.872 0.576402 17 0.881584 17 1.1998C17 1.51801 16.872 1.82319 16.6442 2.04823L6.92119 11.6486C6.69327 11.8736 6.38419 12 6.06192 12C5.73965 12 5.43057 11.8736 5.20265 11.6486L0.341169 6.84844C0.119779 6.6221 -0.00272318 6.31897 4.59442e-05 6.00432C0.00281507 5.68967 0.130634 5.38868 0.355974 5.16618C0.581314 4.94368 0.886144 4.81748 1.20481 4.81474C1.52348 4.81201 1.83048 4.93297 2.0597 5.15156L6.06192 9.10333L14.9256 0.351359C15.1535 0.126384 15.4626 0 15.7849 0C16.1072 0 16.4162 0.126384 16.6442 0.351359Z" fill="#57F5FF"/>
</svg>
