<svg width="64" height="64" viewBox="0 0 64 64" fill="none" xmlns="http://www.w3.org/2000/svg">
<path d="M10.6667 42.6564H0V53.3231H10.6667V42.6564Z" fill="url(#paint0_linear_137_396)"/>
<path d="M10.6667 31.9898H0V42.6564H10.6667V31.9898Z" fill="url(#paint1_linear_137_396)"/>
<path d="M32 42.6564H21.3333V53.3231H32V42.6564Z" fill="url(#paint2_linear_137_396)"/>
<path d="M21.3333 42.6564H10.6667V53.3231H21.3333V42.6564Z" fill="url(#paint3_linear_137_396)"/>
<path d="M21.3436 10.6667V0H10.6769V10.6667H21.3436Z" fill="url(#paint4_linear_137_396)"/>
<path d="M32.0102 10.6667V0H21.3436V10.6667H32.0102Z" fill="url(#paint5_linear_137_396)"/>
<path d="M21.3436 32V21.3333H10.6769V32H21.3436Z" fill="url(#paint6_linear_137_396)"/>
<path d="M21.3436 21.3333V10.6667H10.6769V21.3333H21.3436Z" fill="url(#paint7_linear_137_396)"/>
<path d="M53.3333 21.3436H64V10.6769H53.3333V21.3436Z" fill="url(#paint8_linear_137_396)"/>
<path d="M53.3333 32.0102H64V21.3436H53.3333V32.0102Z" fill="url(#paint9_linear_137_396)"/>
<path d="M32 21.3436H42.6667V10.6769H32V21.3436Z" fill="url(#paint10_linear_137_396)"/>
<path d="M42.6667 21.3436H53.3333V10.6769H42.6667V21.3436Z" fill="url(#paint11_linear_137_396)"/>
<path d="M42.6564 53.3333V64H53.3231V53.3333H42.6564Z" fill="url(#paint12_linear_137_396)"/>
<path d="M31.9898 53.3333V64H42.6564V53.3333H31.9898Z" fill="url(#paint13_linear_137_396)"/>
<path d="M42.6564 32V42.6667H53.3231V32H42.6564Z" fill="url(#paint14_linear_137_396)"/>
<path d="M42.6564 42.6667V53.3333H53.3231V42.6667H42.6564Z" fill="url(#paint15_linear_137_396)"/>
<defs>
<linearGradient id="paint0_linear_137_396" x1="1.19974e-06" y1="-44.0755" x2="72.4418" y2="-38.7267" gradientUnits="userSpaceOnUse">
<stop stop-color="#E541D3"/>
<stop offset="1" stop-color="#02F1F6"/>
</linearGradient>
<linearGradient id="paint1_linear_137_396" x1="1.19974e-06" y1="-44.0755" x2="72.4418" y2="-38.7267" gradientUnits="userSpaceOnUse">
<stop stop-color="#E541D3"/>
<stop offset="1" stop-color="#02F1F6"/>
</linearGradient>
<linearGradient id="paint2_linear_137_396" x1="1.19974e-06" y1="-44.0755" x2="72.4418" y2="-38.7267" gradientUnits="userSpaceOnUse">
<stop stop-color="#E541D3"/>
<stop offset="1" stop-color="#02F1F6"/>
</linearGradient>
<linearGradient id="paint3_linear_137_396" x1="1.19974e-06" y1="-44.0755" x2="72.4418" y2="-38.7267" gradientUnits="userSpaceOnUse">
<stop stop-color="#E541D3"/>
<stop offset="1" stop-color="#02F1F6"/>
</linearGradient>
<linearGradient id="paint4_linear_137_396" x1="1.19974e-06" y1="-44.0755" x2="72.4418" y2="-38.7267" gradientUnits="userSpaceOnUse">
<stop stop-color="#E541D3"/>
<stop offset="1" stop-color="#02F1F6"/>
</linearGradient>
<linearGradient id="paint5_linear_137_396" x1="1.19974e-06" y1="-44.0755" x2="72.4418" y2="-38.7267" gradientUnits="userSpaceOnUse">
<stop stop-color="#E541D3"/>
<stop offset="1" stop-color="#02F1F6"/>
</linearGradient>
<linearGradient id="paint6_linear_137_396" x1="1.19974e-06" y1="-44.0755" x2="72.4418" y2="-38.7267" gradientUnits="userSpaceOnUse">
<stop stop-color="#E541D3"/>
<stop offset="1" stop-color="#02F1F6"/>
</linearGradient>
<linearGradient id="paint7_linear_137_396" x1="1.19974e-06" y1="-44.0755" x2="72.4418" y2="-38.7267" gradientUnits="userSpaceOnUse">
<stop stop-color="#E541D3"/>
<stop offset="1" stop-color="#02F1F6"/>
</linearGradient>
<linearGradient id="paint8_linear_137_396" x1="1.19974e-06" y1="-44.0755" x2="72.4418" y2="-38.7267" gradientUnits="userSpaceOnUse">
<stop stop-color="#E541D3"/>
<stop offset="1" stop-color="#02F1F6"/>
</linearGradient>
<linearGradient id="paint9_linear_137_396" x1="1.19974e-06" y1="-44.0755" x2="72.4418" y2="-38.7267" gradientUnits="userSpaceOnUse">
<stop stop-color="#E541D3"/>
<stop offset="1" stop-color="#02F1F6"/>
</linearGradient>
<linearGradient id="paint10_linear_137_396" x1="1.19974e-06" y1="-44.0755" x2="72.4418" y2="-38.7267" gradientUnits="userSpaceOnUse">
<stop stop-color="#E541D3"/>
<stop offset="1" stop-color="#02F1F6"/>
</linearGradient>
<linearGradient id="paint11_linear_137_396" x1="1.19974e-06" y1="-44.0755" x2="72.4418" y2="-38.7267" gradientUnits="userSpaceOnUse">
<stop stop-color="#E541D3"/>
<stop offset="1" stop-color="#02F1F6"/>
</linearGradient>
<linearGradient id="paint12_linear_137_396" x1="1.19974e-06" y1="-44.0755" x2="72.4418" y2="-38.7267" gradientUnits="userSpaceOnUse">
<stop stop-color="#E541D3"/>
<stop offset="1" stop-color="#02F1F6"/>
</linearGradient>
<linearGradient id="paint13_linear_137_396" x1="1.19974e-06" y1="-44.0755" x2="72.4418" y2="-38.7267" gradientUnits="userSpaceOnUse">
<stop stop-color="#E541D3"/>
<stop offset="1" stop-color="#02F1F6"/>
</linearGradient>
<linearGradient id="paint14_linear_137_396" x1="1.19974e-06" y1="-44.0755" x2="72.4418" y2="-38.7267" gradientUnits="userSpaceOnUse">
<stop stop-color="#E541D3"/>
<stop offset="1" stop-color="#02F1F6"/>
</linearGradient>
<linearGradient id="paint15_linear_137_396" x1="1.19974e-06" y1="-44.0755" x2="72.4418" y2="-38.7267" gradientUnits="userSpaceOnUse">
<stop stop-color="#E541D3"/>
<stop offset="1" stop-color="#02F1F6"/>
</linearGradient>
</defs>
</svg>
