<svg width="154" height="11" viewBox="0 0 154 11" fill="none" xmlns="http://www.w3.org/2000/svg">
<path d="M0 5.5C0 8.60139 2.66258 11 6.12736 11C8.77287 11 10.9917 9.54861 11.7768 7.33333H9.88229C9.19957 8.64722 7.91948 9.53333 6.12736 9.53333C3.66959 9.53333 1.79212 7.77639 1.79212 5.5C1.79212 3.22361 3.66959 1.46667 6.12736 1.46667C7.91948 1.46667 9.19957 2.35278 9.88229 3.66667H11.7768C10.9917 1.45139 8.77287 0 6.12736 0C2.66258 0 0 2.39861 0 5.5Z" fill="white"/>
<path d="M23.4944 9.38056C23.2213 9.38056 23.0677 9.24306 23.0677 8.99861V7.48611C23.0677 6.61528 22.7434 6.06528 22.0778 5.74444C22.9312 5.17917 23.375 4.30833 23.375 3.28472C23.375 1.5125 22.0095 0.152778 19.5518 0.152778H13.9023V10.8472H15.6091V6.41667H16.2065V6.43194H20.115C20.9343 6.43194 21.3609 6.81389 21.3609 7.54722V9.54861C21.3609 10.4042 21.8559 10.8472 22.8117 10.8472H23.8699V9.38056H23.4944ZM15.6091 1.54306H19.4493C20.8148 1.54306 21.5828 2.16944 21.5828 3.28472C21.5828 4.4 20.8148 5.02639 19.4493 5.02639H15.6091V1.54306Z" fill="white"/>
<path d="M35.8105 0.152778H33.8477L30.0415 5.10278L26.2525 0.152778H24.2043L29.154 6.53889V10.8472H30.8608V6.52361L35.8105 0.152778Z" fill="white"/>
<path d="M42.7434 0.152778H37.5206V10.8472H39.2274V6.41667H42.7434C45.2011 6.41667 46.5666 5.05694 46.5666 3.28472C46.5666 1.5125 45.2011 0.152778 42.7434 0.152778ZM42.6922 4.99583H39.2274V1.58889H42.6922C44.0576 1.58889 44.7744 2.16944 44.7744 3.28472C44.7744 4.4 44.0576 4.99583 42.6922 4.99583Z" fill="white"/>
<path d="M57.582 0.152778H47.3413V1.61944H51.6082V10.8472H53.315V1.61944H57.582V0.152778Z" fill="white"/>
<path d="M63.9838 11C67.4997 11 70.2135 8.60139 70.2135 5.5C70.2135 2.39861 67.4997 0 63.9838 0C60.4678 0 57.754 2.39861 57.754 5.5C57.754 8.60139 60.4678 11 63.9838 11ZM63.9838 9.53333C61.4748 9.53333 59.5461 7.77639 59.5461 5.5C59.5461 3.22361 61.4748 1.46667 63.9838 1.46667C66.4927 1.46667 68.4214 3.22361 68.4214 5.5C68.4214 7.77639 66.4927 9.53333 63.9838 9.53333Z" fill="white"/>
<path d="M80.5449 1.61944V0.152778H72.523V10.8472H74.2298V6.21806H80.0329V4.78194H74.2298V1.61944H80.5449Z" fill="white"/>
<path d="M87.8854 11C91.4014 11 94.1152 8.60139 94.1152 5.5C94.1152 2.39861 91.4014 0 87.8854 0C84.3695 0 81.6557 2.39861 81.6557 5.5C81.6557 8.60139 84.3695 11 87.8854 11ZM87.8854 9.53333C85.3765 9.53333 83.4478 7.77639 83.4478 5.5C83.4478 3.22361 85.3765 1.46667 87.8854 1.46667C90.3944 1.46667 92.3231 3.22361 92.3231 5.5C92.3231 7.77639 90.3944 9.53333 87.8854 9.53333Z" fill="white"/>
<path d="M106.017 9.38056C105.744 9.38056 105.59 9.24306 105.59 8.99861V7.48611C105.59 6.61528 105.266 6.06528 104.6 5.74444C105.454 5.17917 105.897 4.30833 105.897 3.28472C105.897 1.5125 104.532 0.152778 102.074 0.152778H96.4247V10.8472H98.1315V6.41667H98.7288V6.43194H102.637C103.457 6.43194 103.883 6.81389 103.883 7.54722V9.54861C103.883 10.4042 104.378 10.8472 105.334 10.8472H106.392V9.38056H106.017ZM98.1315 1.54306H101.972C103.337 1.54306 104.105 2.16944 104.105 3.28472C104.105 4.4 103.337 5.02639 101.972 5.02639H98.1315V1.54306Z" fill="white"/>
<path d="M117.403 0.152778H107.162V1.61944H111.429V10.8472H113.136V1.61944H117.403V0.152778Z" fill="white"/>
<path d="M124.228 11C127.198 11 129.434 9.05972 129.434 6.47778V0.152778H127.727V6.47778C127.727 8.21944 126.225 9.53333 124.228 9.53333C122.231 9.53333 120.729 8.21944 120.729 6.47778V0.152778H119.022V6.47778C119.022 9.05972 121.258 11 124.228 11Z" fill="white"/>
<path d="M141.202 0.152778V8.61667L134.427 0.152778H132.327V10.8472H134.034V2.15417L141.032 10.8472H142.909V0.152778H141.202Z" fill="white"/>
<path d="M154 1.58889V0.152778H145.978V10.8472H154V9.41111H147.685V6.21806H153.488V4.78194H147.685V1.58889H154Z" fill="white"/>
</svg>
