<svg width="21" height="20" viewBox="0 0 21 20" fill="none" xmlns="http://www.w3.org/2000/svg">
<g opacity="0.2">
<path d="M11.2684 1.00029C10.1423 1.00029 9.21957 1.90098 9.21957 3.00028V9.88312C8.9023 9.21385 8.33314 8.49035 7.61894 8.31281C6.64732 8.05525 5.45704 8.81413 5.18603 9.69567C5.04777 10.1871 5.13798 10.7461 5.41005 11.4301C6.74058 14.5533 8.37871 17.5513 10.372 19.8281C10.4672 19.935 10.611 19.9993 10.7561 20H17.6708C17.7798 19.999 17.888 19.9627 17.9748 19.8985C18.7121 19.3654 19.3062 18.4573 19.7995 17.3752C20.2927 16.2932 20.6703 15.0378 20.8638 13.8128C21.0574 12.5878 21.0565 11.4407 20.7837 10.4223C20.5204 9.43948 19.8102 8.62147 18.751 8.50044C18.5013 8.4994 18.2377 8.52067 18.0146 8.57072C17.8833 8.26415 17.6991 8.00256 17.4705 7.84426C17.0875 7.57903 16.6977 7.4955 16.382 7.50056C16.0789 7.50544 15.8027 7.61321 15.5578 7.78184C15.4476 7.61774 15.3343 7.44685 15.1896 7.34431C14.81 7.07507 14.4059 7.00061 14.0853 7.00061C13.82 7.00061 13.5631 7.07246 13.3169 7.17255V3.00084C13.2951 1.66262 12.214 0.99844 11.2681 1.00085L11.2684 1.00029ZM11.2684 2.00017C11.8447 2.00017 12.2927 2.43752 12.2927 3.00005V8.2499C12.2893 8.4766 12.464 8.69388 12.6904 8.74444C12.9167 8.79519 13.1709 8.674 13.2692 8.46857C13.3823 8.23892 13.8085 7.99984 14.0856 7.99984C14.2099 7.99984 14.4405 8.05023 14.5897 8.15608C14.739 8.26193 14.8537 8.38574 14.8537 8.74986C14.8543 8.9722 15.0252 9.18337 15.2466 9.23516C15.4681 9.28695 15.7185 9.1743 15.8221 8.97638C16.0304 8.56972 16.1419 8.50398 16.3985 8.49978C16.4694 8.49856 16.718 8.54477 16.8786 8.65603C17.0392 8.76728 17.1588 8.89528 17.1588 9.24981C17.1571 9.44459 17.2836 9.63466 17.4666 9.71225C17.6495 9.79002 17.8781 9.75078 18.023 9.61686C18.2172 9.52339 18.4076 9.49497 18.6552 9.49968C19.2658 9.57553 19.5829 9.94904 19.7996 10.6949C20.0184 11.4477 20.0265 12.5236 19.8476 13.6557C19.6688 14.7879 19.3151 15.9767 18.8633 16.968C18.4396 17.8978 17.9205 18.6238 17.4628 18.9992H11.0045C9.20666 16.929 7.48988 13.7498 6.3709 11.07C6.13795 10.4846 6.11687 10.1485 6.17082 9.96056C6.36072 9.477 6.89165 9.20393 7.34719 9.27317C7.89168 9.47336 8.02673 9.82806 8.2595 10.234L9.27599 12.2261C9.3796 12.424 9.63006 12.5367 9.85158 12.4849C10.0731 12.4331 10.2441 12.2219 10.2444 11.9996V2.99986C10.2444 2.43728 10.6924 1.99997 11.2687 1.99997L11.2684 2.00017Z" fill="white"/>
<path d="M0 2.75105C0.00518055 2.62532 0.0321552 2.49976 0.143983 2.39949L2.4488 0.149646C2.63994 -0.0482767 2.98706 -0.0477543 3.18015 0.13866C3.37323 0.325075 3.37165 0.667886 3.17711 0.852747L1.74459 2.2511H6.65852C6.94149 2.2511 7.17067 2.475 7.17067 2.75104C7.17067 3.02708 6.9413 3.25098 6.65852 3.25098H1.74459L3.17711 4.64934C3.37183 4.83418 3.37326 5.177 3.18015 5.36342C2.98703 5.54985 2.63584 5.54461 2.4488 5.35244L0.143983 3.10259C0.0375141 2.99709 0.00428511 2.88793 0 2.75105Z" fill="white"/>
</g>
</svg>
