<svg width="33" height="33" viewBox="0 0 33 33" fill="none" xmlns="http://www.w3.org/2000/svg">
<path d="M11.85 10.8903V9.89033C11.2977 9.89033 10.85 10.338 10.85 10.8903H11.85ZM11.85 16.7207H10.85C10.85 17.273 11.2977 17.7207 11.85 17.7207V16.7207ZM11.85 16.7028V15.7028C11.2977 15.7028 10.85 16.1505 10.85 16.7028H11.85ZM11.85 22.5332H10.85C10.85 23.0855 11.2977 23.5332 11.85 23.5332V22.5332ZM17.9292 22.5153C17.9292 21.963 17.4815 21.5153 16.9292 21.5153C16.3769 21.5153 15.9292 21.963 15.9292 22.5153H17.9292ZM15.9292 25.4305C15.9292 25.9828 16.3769 26.4305 16.9292 26.4305C17.4815 26.4305 17.9292 25.9828 17.9292 25.4305H15.9292ZM14.2986 22.5153C14.2986 21.963 13.8509 21.5153 13.2986 21.5153C12.7463 21.5153 12.2986 21.963 12.2986 22.5153H14.2986ZM12.2986 25.4305C12.2986 25.9828 12.7463 26.4305 13.2986 26.4305C13.8509 26.4305 14.2986 25.9828 14.2986 25.4305H12.2986ZM17.9292 7.975C17.9292 7.42271 17.4815 6.975 16.9292 6.975C16.3769 6.975 15.9292 7.42271 15.9292 7.975H17.9292ZM15.9292 10.8902C15.9292 11.4425 16.3769 11.8902 16.9292 11.8902C17.4815 11.8902 17.9292 11.4425 17.9292 10.8902H15.9292ZM14.2986 7.975C14.2986 7.42271 13.8509 6.975 13.2986 6.975C12.7463 6.975 12.2986 7.42271 12.2986 7.975H14.2986ZM12.2986 10.8902C12.2986 11.4425 12.7463 11.8902 13.2986 11.8902C13.8509 11.8902 14.2986 11.4425 14.2986 10.8902H12.2986ZM14.6042 11.8903C15.1565 11.8903 15.6042 11.4426 15.6042 10.8903C15.6042 10.338 15.1565 9.89033 14.6042 9.89033V11.8903ZM9.525 9.89033C8.97271 9.89033 8.525 10.338 8.525 10.8903C8.525 11.4426 8.97271 11.8903 9.525 11.8903V9.89033ZM14.6042 23.5153C15.1565 23.5153 15.6042 23.0676 15.6042 22.5153C15.6042 21.963 15.1565 21.5153 14.6042 21.5153V23.5153ZM9.525 21.5153C8.97271 21.5153 8.525 21.963 8.525 22.5153C8.525 23.0676 8.97271 23.5153 9.525 23.5153V21.5153ZM11.85 11.8903H19.1111V9.89033H11.85V11.8903ZM19.1111 11.8903C20.1373 11.8903 21.0263 12.8596 21.0263 13.8055H23.0263C23.0263 11.8184 21.3042 9.89033 19.1111 9.89033V11.8903ZM21.0263 13.8055C21.0263 14.8629 20.1684 15.7207 19.1111 15.7207V17.7207C21.273 17.7207 23.0263 15.9674 23.0263 13.8055H21.0263ZM19.1111 15.7207H11.85V17.7207H19.1111V15.7207ZM12.85 16.7207V10.8903H10.85V16.7207H12.85ZM11.85 17.7028H20.1484V15.7028H11.85V17.7028ZM20.1484 17.7028C21.5652 17.7028 22.475 18.6796 22.475 19.618H24.475C24.475 17.3372 22.4159 15.7028 20.1484 15.7028V17.7028ZM22.475 19.618C22.475 20.5564 21.5652 21.5332 20.1484 21.5332V23.5332C22.4159 23.5332 24.475 21.8989 24.475 19.618H22.475ZM20.1484 21.5332H11.85V23.5332H20.1484V21.5332ZM12.85 22.5332V16.7028H10.85V22.5332H12.85ZM15.9292 22.5153V25.4305H17.9292V22.5153H15.9292ZM12.2986 22.5153V25.4305H14.2986V22.5153H12.2986ZM15.9292 7.975V10.8902H17.9292V7.975H15.9292ZM12.2986 7.975V10.8902H14.2986V7.975H12.2986ZM14.6042 9.89033H9.525V11.8903H14.6042V9.89033ZM14.6042 21.5153H9.525V23.5153H14.6042V21.5153ZM31 16.5C31 24.5081 24.5081 31 16.5 31V33C25.6127 33 33 25.6127 33 16.5H31ZM16.5 31C8.49187 31 2 24.5081 2 16.5H0C0 25.6127 7.3873 33 16.5 33V31ZM2 16.5C2 8.49187 8.49187 2 16.5 2V0C7.3873 0 0 7.3873 0 16.5H2ZM16.5 2C24.5081 2 31 8.49187 31 16.5H33C33 7.3873 25.6127 0 16.5 0V2Z" fill="url(#paint0_linear_137_34)"/>
<defs>
<linearGradient id="paint0_linear_137_34" x1="1" y1="-20.3491" x2="36.089" y2="-17.7582" gradientUnits="userSpaceOnUse">
<stop stop-color="#E541D3"/>
<stop offset="1" stop-color="#02F1F6"/>
</linearGradient>
</defs>
</svg>
