<svg width="21" height="34" viewBox="0 0 21 34" fill="none" xmlns="http://www.w3.org/2000/svg">
<path d="M10.5165 1.0861V9.71236M10.5165 9.71236L3.59429 14.8783M10.5165 9.71236L17.4387 14.8783M7.96186 2.31608L1.79782 9.95836C0.396895 11.6967 0.891337 13.9271 2.88559 14.9111L9.03316 17.9778C9.84074 18.3714 11.1593 18.3714 11.9668 17.9778L18.1144 14.9111C20.1087 13.9107 20.6031 11.6803 19.2022 9.95836L13.0546 2.31608C11.6702 0.561307 9.36278 0.561307 7.96186 2.31608ZM5.19299 20.979L7.84649 22.1598C9.54408 22.9142 11.4889 22.9142 13.203 22.1598L15.8565 20.979C18.2298 19.9294 20.4218 22.783 18.7737 24.7837L13.0711 31.7208C11.6702 33.4264 9.37926 33.4264 7.96186 31.7208L2.27578 24.7837C0.611154 22.783 2.80318 19.9294 5.19299 20.979Z" stroke="url(#paint0_linear_137_39)" stroke-width="2" stroke-miterlimit="10" stroke-linecap="round" stroke-linejoin="round"/>
<defs>
<linearGradient id="paint0_linear_137_39" x1="1" y1="-21.0377" x2="22.5819" y2="-20.0916" gradientUnits="userSpaceOnUse">
<stop stop-color="#E541D3"/>
<stop offset="1" stop-color="#02F1F6"/>
</linearGradient>
</defs>
</svg>
