<svg width="224" height="81" viewBox="0 0 224 81" fill="none" xmlns="http://www.w3.org/2000/svg">
<path d="M16 73.5C16 77.7292 19.4406 81 23.9178 81C27.3364 81 30.2036 79.0208 31.2181 76H28.77C27.8878 77.7917 26.2336 79 23.9178 79C20.7419 79 18.3158 76.6042 18.3158 73.5C18.3158 70.3958 20.7419 68 23.9178 68C26.2336 68 27.8878 69.2083 28.77 71H31.2181C30.2036 67.9792 27.3364 66 23.9178 66C19.4406 66 16 69.2708 16 73.5Z" fill="white"/>
<path d="M46.3597 78.7917C46.0068 78.7917 45.8083 78.6042 45.8083 78.2708V76.2083C45.8083 75.0208 45.3893 74.2708 44.5291 73.8333C45.6319 73.0625 46.2053 71.875 46.2053 70.4792C46.2053 68.0625 44.4409 66.2083 41.2649 66.2083H33.9647V80.7917H36.1702V74.75H36.9421V74.7708H41.9928C43.0514 74.7708 43.6028 75.2917 43.6028 76.2917V79.0208C43.6028 80.1875 44.2424 80.7917 45.4775 80.7917H46.8449V78.7917H46.3597ZM36.1702 68.1042H41.1326C42.897 68.1042 43.8895 68.9583 43.8895 70.4792C43.8895 72 42.897 72.8542 41.1326 72.8542H36.1702V68.1042Z" fill="white"/>
<path d="M62.2746 66.2083H59.7382L54.8199 72.9583L49.9237 66.2083H47.277L53.6731 74.9167V80.7917H55.8786V74.8958L62.2746 66.2083Z" fill="white"/>
<path d="M71.2333 66.2083H64.4844V80.7917H66.6899V74.75H71.2333C74.4093 74.75 76.1737 72.8958 76.1737 70.4792C76.1737 68.0625 74.4093 66.2083 71.2333 66.2083ZM71.1671 72.8125H66.6899V68.1667H71.1671C72.9316 68.1667 73.8579 68.9583 73.8579 70.4792C73.8579 72 72.9316 72.8125 71.1671 72.8125Z" fill="white"/>
<path d="M90.4079 66.2083H77.1748V68.2083H82.6886V80.7917H84.8941V68.2083H90.4079V66.2083Z" fill="white"/>
<path d="M98.6803 81C103.224 81 106.73 77.7292 106.73 73.5C106.73 69.2708 103.224 66 98.6803 66C94.1369 66 90.6302 69.2708 90.6302 73.5C90.6302 77.7292 94.1369 81 98.6803 81ZM98.6803 79C95.4382 79 92.946 76.6042 92.946 73.5C92.946 70.3958 95.4382 68 98.6803 68C101.922 68 104.415 70.3958 104.415 73.5C104.415 76.6042 101.922 79 98.6803 79Z" fill="white"/>
<path d="M120.081 68.2083V66.2083H109.715V80.7917H111.92V74.4792H119.419V72.5208H111.92V68.2083H120.081Z" fill="white"/>
<path d="M129.566 81C134.11 81 137.616 77.7292 137.616 73.5C137.616 69.2708 134.11 66 129.566 66C125.023 66 121.516 69.2708 121.516 73.5C121.516 77.7292 125.023 81 129.566 81ZM129.566 79C126.324 79 123.832 76.6042 123.832 73.5C123.832 70.3958 126.324 68 129.566 68C132.808 68 135.301 70.3958 135.301 73.5C135.301 76.6042 132.808 79 129.566 79Z" fill="white"/>
<path d="M152.996 78.7917C152.643 78.7917 152.444 78.6042 152.444 78.2708V76.2083C152.444 75.0208 152.025 74.2708 151.165 73.8333C152.268 73.0625 152.841 71.875 152.841 70.4792C152.841 68.0625 151.077 66.2083 147.901 66.2083H140.601V80.7917H142.806V74.75H143.578V74.7708H148.629C149.687 74.7708 150.239 75.2917 150.239 76.2917V79.0208C150.239 80.1875 150.878 80.7917 152.114 80.7917H153.481V78.7917H152.996ZM142.806 68.1042H147.769C149.533 68.1042 150.526 68.9583 150.526 70.4792C150.526 72 149.533 72.8542 147.769 72.8542H142.806V68.1042Z" fill="white"/>
<path d="M167.709 66.2083H154.476V68.2083H159.989V80.7917H162.195V68.2083H167.709V66.2083Z" fill="white"/>
<path d="M176.528 81C180.366 81 183.255 78.3542 183.255 74.8333V66.2083H181.05V74.8333C181.05 77.2083 179.109 79 176.528 79C173.948 79 172.007 77.2083 172.007 74.8333V66.2083H169.801V74.8333C169.801 78.3542 172.691 81 176.528 81Z" fill="white"/>
<path d="M198.463 66.2083V77.75L189.707 66.2083H186.994V80.7917H189.2V68.9375L198.242 80.7917H200.668V66.2083H198.463Z" fill="white"/>
<path d="M215 68.1667V66.2083H204.634V80.7917H215V78.8333H206.84V74.4792H214.338V72.5208H206.84V68.1667H215Z" fill="white"/>
<path opacity="0.9" d="M47 -15H185L140 15H0L47 -15Z" fill="url(#paint0_linear_137_26)"/>
<path opacity="0.9" d="M86 28H224L179 0H39L86 28Z" fill="url(#paint1_linear_137_26)"/>
<defs>
<linearGradient id="paint0_linear_137_26" x1="3.46801e-06" y1="-35.6604" x2="174.389" y2="43.7432" gradientUnits="userSpaceOnUse">
<stop stop-color="#E541D3"/>
<stop offset="1" stop-color="#02F1F6"/>
</linearGradient>
<linearGradient id="paint1_linear_137_26" x1="39" y1="47.283" x2="209.068" y2="-35.6843" gradientUnits="userSpaceOnUse">
<stop stop-color="#E541D3"/>
<stop offset="1" stop-color="#02F1F6"/>
</linearGradient>
</defs>
</svg>
